<?xml version="1.0" encoding="UTF-8" standalone="no"?> <svg width="64" height="64" viewBox="0 0 64 64" fill="none" xmlns="http://www.w3.org/2000/svg">
<path d="M46.15 2.5H17.86C17.0316 2.5 16.36 3.17157 16.36 4V20C16.36 20.8284 17.0316 21.5 17.86 21.5H46.15C46.9784 21.5 47.65 20.8284 47.65 20V4C47.65 3.17157 46.9784 2.5 46.15 2.5Z" fill="#E6E6E6"/>
<path d="M56 18.5H8C6.54212 18.5026 5.14471 19.083 4.11383 20.1138C3.08295 21.1447 2.50264 22.5421 2.5 24V44C2.50264 45.4579 3.08295 46.8553 4.11383 47.8862C5.14471 48.917 6.54212 49.4974 8 49.5H17.86C18.1941 49.4986 18.5183 49.3857 18.7809 49.1792C19.0436 48.9727 19.2298 48.6844 19.31 48.36H44.69C44.7702 48.6844 44.9564 48.9727 45.2191 49.1792C45.4817 49.3857 45.8059 49.4986 46.14 49.5H56C57.4579 49.4974 58.8553 48.917 59.8862 47.8862C60.917 46.8553 61.4974 45.4579 61.5 44V24C61.4974 22.5421 60.917 21.1447 59.8862 20.1138C58.8553 19.083 57.4579 18.5026 56 18.5V18.5Z" fill="#275996"/>
<path d="M46.15 32.5H17.86C17.0316 32.5 16.36 33.1716 16.36 34V60C16.36 60.8284 17.0316 61.5 17.86 61.5H46.15C46.9784 61.5 47.65 60.8284 47.65 60V34C47.65 33.1716 46.9784 32.5 46.15 32.5Z" fill="#E6E6E6"/>
<path d="M52 35.5H12C11.6022 35.5 11.2206 35.342 10.9393 35.0607C10.658 34.7794 10.5 34.3978 10.5 34C10.5 33.6022 10.658 33.2206 10.9393 32.9393C11.2206 32.658 11.6022 32.5 12 32.5H52C52.3978 32.5 52.7794 32.658 53.0607 32.9393C53.342 33.2206 53.5 33.6022 53.5 34C53.5 34.3978 53.342 34.7794 53.0607 35.0607C52.7794 35.342 52.3978 35.5 52 35.5Z" fill="#ACB3BA"/>
</svg>
